<svg xmlns="http://www.w3.org/2000/svg" xmlns:xlink="http://www.w3.org/1999/xlink" width="1080" zoomAndPan="magnify" viewBox="0 0 810 809.999993" height="1080" preserveAspectRatio="xMidYMid meet" version="1.0"><defs><g/><clipPath id="f5ccf2e7de"><rect x="0" width="471" y="0" height="218"/></clipPath><clipPath id="62c771f785"><rect x="0" width="139" y="0" height="63"/></clipPath></defs><rect x="-81" width="972" fill="#ffffff" y="-80.999999" height="971.999992" fill-opacity="1"/><rect x="-81" width="972" fill="#ffffff" y="-80.999999" height="971.999992" fill-opacity="1"/><g transform="matrix(1, 0, 0, 1, 119, 318)"><g clip-path="url(#f5ccf2e7de)"><g fill="#d94407" fill-opacity="1"><g transform="translate(0.746543, 161.847064)"><g><path d="M 29.265625 -2.125 L 29.265625 -111.984375 C 29.265625 -112.828125 28.84375 -113.25 28 -113.25 L 4.671875 -113.25 C 3.253906 -113.25 2.546875 -113.957031 2.546875 -115.375 L 2.546875 -142.09375 C 2.546875 -143.507812 3.253906 -144.21875 4.671875 -144.21875 L 91.828125 -144.21875 C 93.242188 -144.21875 93.953125 -143.507812 93.953125 -142.09375 L 93.953125 -115.375 C 93.953125 -113.957031 93.242188 -113.25 91.828125 -113.25 L 68.71875 -113.25 C 67.863281 -113.25 67.4375 -112.828125 67.4375 -111.984375 L 67.4375 -2.125 C 67.4375 -0.707031 66.726562 0 65.3125 0 L 31.390625 0 C 29.972656 0 29.265625 -0.707031 29.265625 -2.125 Z M 29.265625 -2.125 "/></g></g></g><g fill="#d94407" fill-opacity="1"><g transform="translate(97.239561, 161.847064)"><g><path d="M 85.046875 -1.90625 L 67.859375 -43.90625 C 66.453125 -47.582031 65.394531 -49.769531 64.6875 -50.46875 C 63.976562 -51.175781 62.988281 -51.53125 61.71875 -51.53125 L 54.71875 -51.53125 C 53.863281 -51.53125 53.222656 -51.457031 52.796875 -51.3125 C 52.378906 -51.175781 52.171875 -50.753906 52.171875 -50.046875 L 52.171875 -2.125 C 52.171875 -0.707031 51.460938 0 50.046875 0 L 16.125 0 C 14.707031 0 14 -0.707031 14 -2.125 L 14 -142.09375 C 14 -143.507812 14.707031 -144.21875 16.125 -144.21875 L 64.46875 -144.21875 C 81.863281 -144.21875 94.90625 -141.351562 103.59375 -135.625 C 112.289062 -129.894531 116.640625 -119.609375 116.640625 -104.765625 C 116.640625 -88.785156 111.550781 -76.203125 101.375 -67.015625 C 100.101562 -66.023438 99.289062 -65.28125 98.9375 -64.78125 C 98.582031 -64.289062 98.40625 -63.765625 98.40625 -63.203125 C 98.40625 -62.773438 98.6875 -61.925781 99.25 -60.65625 C 99.8125 -59.382812 100.519531 -57.898438 101.375 -56.203125 L 127.25 -2.125 C 127.8125 -0.707031 127.316406 0 125.765625 0 L 87.796875 0 C 86.378906 0 85.460938 -0.632812 85.046875 -1.90625 Z M 60.859375 -75.921875 C 67.222656 -75.921875 71.675781 -77.472656 74.21875 -80.578125 C 76.769531 -83.691406 78.046875 -89.351562 78.046875 -97.5625 C 78.046875 -104.769531 76.878906 -109.859375 74.546875 -112.828125 C 72.210938 -115.796875 67.648438 -117.28125 60.859375 -117.28125 L 56.84375 -117.28125 C 54.863281 -117.28125 53.585938 -117.171875 53.015625 -116.953125 C 52.453125 -116.742188 52.171875 -116.285156 52.171875 -115.578125 L 52.171875 -78.46875 C 52.171875 -77.332031 52.769531 -76.625 53.96875 -76.34375 C 55.175781 -76.0625 57.472656 -75.921875 60.859375 -75.921875 Z M 60.859375 -75.921875 "/></g></g></g><g fill="#d94407" fill-opacity="1"><g transform="translate(223.422715, 161.847064)"><g><path d="M 84.625 -142.09375 C 85.039062 -143.507812 85.957031 -144.21875 87.375 -144.21875 L 120.453125 -144.21875 C 122.015625 -144.21875 122.796875 -143.507812 122.796875 -142.09375 C 122.796875 -141.238281 122.050781 -138.867188 120.5625 -134.984375 C 119.082031 -131.097656 117.066406 -126.289062 114.515625 -120.5625 C 111.972656 -114.84375 109.179688 -108.625 106.140625 -101.90625 C 103.097656 -95.1875 100.019531 -88.570312 96.90625 -82.0625 C 93.800781 -75.5625 90.835938 -69.695312 88.015625 -64.46875 C 85.328125 -59.519531 83.378906 -55.738281 82.171875 -53.125 C 80.972656 -50.507812 80.375 -48.425781 80.375 -46.875 L 80.375 -2.125 C 80.375 -0.707031 79.664062 0 78.25 0 L 44.328125 0 C 42.910156 0 42.203125 -0.707031 42.203125 -2.125 L 42.203125 -46.875 C 42.203125 -48.707031 41.847656 -50.472656 41.140625 -52.171875 L 33.9375 -66.375 C 27.425781 -80.519531 21.695312 -93 16.75 -103.8125 C 11.800781 -114.625 7.910156 -123.351562 5.078125 -130 C 2.253906 -136.644531 0.84375 -140.675781 0.84375 -142.09375 C 1.125 -143.507812 1.90625 -144.21875 3.1875 -144.21875 L 37.109375 -144.21875 C 37.679688 -144.21875 38.316406 -144.070312 39.015625 -143.78125 C 39.722656 -143.5 40.148438 -142.9375 40.296875 -142.09375 C 40.859375 -140.539062 41.773438 -137.851562 43.046875 -134.03125 C 44.316406 -130.21875 45.835938 -125.90625 47.609375 -121.09375 C 49.378906 -116.289062 51.144531 -111.445312 52.90625 -106.5625 C 54.675781 -101.6875 56.300781 -97.335938 57.78125 -93.515625 C 59.269531 -89.703125 60.367188 -86.878906 61.078125 -85.046875 C 61.222656 -84.472656 61.71875 -84.1875 62.5625 -84.1875 C 63.269531 -84.1875 63.765625 -84.472656 64.046875 -85.046875 C 64.753906 -86.878906 65.847656 -89.703125 67.328125 -93.515625 C 68.816406 -97.335938 70.410156 -101.617188 72.109375 -106.359375 C 73.804688 -111.097656 75.5 -115.867188 77.1875 -120.671875 C 78.882812 -125.484375 80.40625 -129.796875 81.75 -133.609375 C 83.09375 -137.421875 84.050781 -140.25 84.625 -142.09375 Z M 84.625 -142.09375 "/></g></g></g><g fill="#d94407" fill-opacity="1"><g transform="translate(347.485157, 161.847064)"><g><path d="M 16.125 -144.21875 L 67.859375 -144.21875 C 78.046875 -144.21875 86.707031 -142.976562 93.84375 -140.5 C 100.976562 -138.03125 106.421875 -133.472656 110.171875 -126.828125 C 113.921875 -120.179688 115.796875 -110.566406 115.796875 -97.984375 C 115.796875 -87.097656 114.414062 -78.222656 111.65625 -71.359375 C 108.90625 -64.503906 105.195312 -59.238281 100.53125 -55.5625 C 95.863281 -51.882812 90.523438 -49.335938 84.515625 -47.921875 C 78.503906 -46.515625 72.175781 -45.8125 65.53125 -45.8125 L 57.6875 -45.8125 C 55.28125 -45.8125 53.722656 -45.703125 53.015625 -45.484375 C 52.304688 -45.273438 51.953125 -44.816406 51.953125 -44.109375 L 51.953125 -2.125 C 51.953125 -0.707031 51.25 0 49.84375 0 L 16.125 0 C 14.707031 0 14 -0.707031 14 -2.125 L 14 -142.09375 C 14 -143.507812 14.707031 -144.21875 16.125 -144.21875 Z M 54.078125 -74.015625 L 59.8125 -74.015625 C 65.601562 -74.015625 69.910156 -75.5 72.734375 -78.46875 C 75.566406 -81.4375 76.984375 -87.585938 76.984375 -96.921875 C 76.984375 -105.117188 75.675781 -110.59375 73.0625 -113.34375 C 70.445312 -116.101562 66.523438 -117.484375 61.296875 -117.484375 L 54.078125 -117.484375 C 52.660156 -117.484375 51.953125 -116.921875 51.953125 -115.796875 L 51.953125 -75.5 C 51.953125 -74.507812 52.660156 -74.015625 54.078125 -74.015625 Z M 54.078125 -74.015625 "/></g></g></g></g></g><g transform="matrix(1, 0, 0, 1, 555, 431)"><g clip-path="url(#62c771f785)"><g fill="#d94407" fill-opacity="1"><g transform="translate(0.335718, 46.966912)"><g><path d="M 13.796875 0 L 3.875 0 C 3.46875 0 3.265625 -0.203125 3.265625 -0.609375 L 3.265625 -9.984375 C 3.265625 -10.378906 3.46875 -10.578125 3.875 -10.578125 L 13.796875 -10.578125 C 14.191406 -10.578125 14.390625 -10.378906 14.390625 -9.984375 L 14.390625 -0.609375 C 14.390625 -0.203125 14.191406 0 13.796875 0 Z M 13.796875 0 "/></g></g></g><g fill="#d94407" fill-opacity="1"><g transform="translate(17.935851, 46.966912)"><g><path d="M 29.15625 -0.78125 C 27.988281 -0.382812 26.664062 -0.0546875 25.1875 0.203125 C 23.71875 0.472656 21.914062 0.609375 19.78125 0.609375 C 15.625 0.609375 12.285156 -0.195312 9.765625 -1.8125 C 7.242188 -3.425781 5.425781 -5.785156 4.3125 -8.890625 C 3.207031 -11.992188 2.65625 -15.785156 2.65625 -20.265625 C 2.65625 -24.660156 3.207031 -28.457031 4.3125 -31.65625 C 5.425781 -34.863281 7.242188 -37.34375 9.765625 -39.09375 C 12.285156 -40.851562 15.625 -41.734375 19.78125 -41.734375 C 21.550781 -41.734375 23.253906 -41.640625 24.890625 -41.453125 C 26.523438 -41.273438 27.785156 -41.023438 28.671875 -40.703125 C 28.867188 -40.617188 28.96875 -40.4375 28.96875 -40.15625 L 28.546875 -32.125 C 28.546875 -32.039062 28.503906 -31.945312 28.421875 -31.84375 C 28.347656 -31.738281 28.226562 -31.707031 28.0625 -31.75 C 27.175781 -31.957031 26.164062 -32.117188 25.03125 -32.234375 C 23.90625 -32.359375 22.820312 -32.421875 21.78125 -32.421875 C 19.957031 -32.421875 18.519531 -32.109375 17.46875 -31.484375 C 16.425781 -30.859375 15.691406 -29.664062 15.265625 -27.90625 C 14.847656 -26.15625 14.640625 -23.585938 14.640625 -20.203125 C 14.640625 -17.097656 14.847656 -14.71875 15.265625 -13.0625 C 15.691406 -11.40625 16.425781 -10.273438 17.46875 -9.671875 C 18.519531 -9.066406 19.957031 -8.765625 21.78125 -8.765625 C 22.945312 -8.765625 24.125 -8.84375 25.3125 -9 C 26.5 -9.164062 27.5 -9.332031 28.3125 -9.5 C 28.46875 -9.539062 28.613281 -9.550781 28.75 -9.53125 C 28.894531 -9.507812 28.988281 -9.394531 29.03125 -9.1875 L 29.515625 -1.453125 C 29.554688 -1.085938 29.4375 -0.863281 29.15625 -0.78125 Z M 29.15625 -0.78125 "/></g></g></g><g fill="#d94407" fill-opacity="1"><g transform="translate(48.418561, 46.966912)"><g><path d="M 14.28125 -20.5625 C 14.28125 -18.144531 14.390625 -15.9375 14.609375 -13.9375 C 14.828125 -11.945312 15.160156 -10.566406 15.609375 -9.796875 C 15.972656 -9.234375 16.546875 -8.878906 17.328125 -8.734375 C 18.117188 -8.597656 19.015625 -8.53125 20.015625 -8.53125 C 21.109375 -8.53125 22.035156 -8.597656 22.796875 -8.734375 C 23.566406 -8.878906 24.113281 -9.234375 24.4375 -9.796875 C 24.875 -10.566406 25.203125 -11.945312 25.421875 -13.9375 C 25.648438 -15.9375 25.765625 -18.144531 25.765625 -20.5625 C 25.765625 -23.019531 25.648438 -25.238281 25.421875 -27.21875 C 25.203125 -29.195312 24.875 -30.566406 24.4375 -31.328125 C 24.113281 -31.890625 23.566406 -32.238281 22.796875 -32.375 C 22.035156 -32.519531 21.128906 -32.59375 20.078125 -32.59375 C 19.035156 -32.59375 18.117188 -32.519531 17.328125 -32.375 C 16.546875 -32.238281 15.972656 -31.890625 15.609375 -31.328125 C 15.160156 -30.566406 14.828125 -29.195312 14.609375 -27.21875 C 14.390625 -25.238281 14.28125 -23.019531 14.28125 -20.5625 Z M 37.375 -20.5625 C 37.375 -16.769531 36.988281 -13.320312 36.21875 -10.21875 C 35.457031 -7.113281 34.351562 -4.773438 32.90625 -3.203125 C 31.570312 -1.710938 29.851562 -0.703125 27.75 -0.171875 C 25.65625 0.347656 23.054688 0.609375 19.953125 0.609375 C 16.773438 0.609375 14.175781 0.347656 12.15625 -0.171875 C 10.144531 -0.703125 8.453125 -1.710938 7.078125 -3.203125 C 5.660156 -4.773438 4.566406 -7.113281 3.796875 -10.21875 C 3.035156 -13.320312 2.65625 -16.769531 2.65625 -20.5625 C 2.65625 -24.394531 3.035156 -27.84375 3.796875 -30.90625 C 4.566406 -33.96875 5.660156 -36.285156 7.078125 -37.859375 C 8.453125 -39.390625 10.175781 -40.414062 12.25 -40.9375 C 14.320312 -41.46875 16.929688 -41.734375 20.078125 -41.734375 C 23.265625 -41.734375 25.863281 -41.46875 27.875 -40.9375 C 29.894531 -40.414062 31.570312 -39.390625 32.90625 -37.859375 C 34.351562 -36.285156 35.457031 -33.96875 36.21875 -30.90625 C 36.988281 -27.84375 37.375 -24.394531 37.375 -20.5625 Z M 37.375 -20.5625 "/></g></g></g><g fill="#d94407" fill-opacity="1"><g transform="translate(88.457347, 46.966912)"><g><path d="M 25.703125 -22.078125 L 31.6875 -40.53125 C 31.769531 -40.925781 32.035156 -41.125 32.484375 -41.125 L 44.765625 -41.125 C 45.160156 -41.125 45.359375 -40.925781 45.359375 -40.53125 L 45.359375 -0.609375 C 45.359375 -0.203125 45.160156 0 44.765625 0 L 34.953125 0 C 34.554688 0 34.359375 -0.203125 34.359375 -0.609375 L 34.90625 -26.375 C 34.90625 -26.738281 34.875 -26.957031 34.8125 -27.03125 C 34.75 -27.113281 34.617188 -27.15625 34.421875 -27.15625 C 34.097656 -27.15625 33.851562 -26.875 33.6875 -26.3125 L 28.734375 -10.28125 C 28.566406 -9.832031 28.429688 -9.546875 28.328125 -9.421875 C 28.234375 -9.304688 28.023438 -9.25 27.703125 -9.25 L 21.171875 -9.25 C 20.804688 -9.25 20.5625 -9.289062 20.4375 -9.375 C 20.320312 -9.457031 20.179688 -9.71875 20.015625 -10.15625 L 15.1875 -26.4375 C 15.019531 -26.914062 14.796875 -27.15625 14.515625 -27.15625 C 14.191406 -27.15625 14.03125 -26.875 14.03125 -26.3125 L 14.515625 -0.609375 C 14.515625 -0.203125 14.3125 0 13.90625 0 L 4.59375 0 C 4.1875 0 3.984375 -0.203125 3.984375 -0.609375 L 3.984375 -40.53125 C 3.984375 -40.925781 4.1875 -41.125 4.59375 -41.125 L 17.71875 -41.125 C 18 -41.125 18.222656 -40.925781 18.390625 -40.53125 L 24.1875 -22.078125 C 24.394531 -21.390625 24.640625 -21.046875 24.921875 -21.046875 C 25.160156 -21.046875 25.320312 -21.125 25.40625 -21.28125 C 25.488281 -21.445312 25.585938 -21.710938 25.703125 -22.078125 Z M 25.703125 -22.078125 "/></g></g></g></g></g></svg>